<svg width="47" height="47" viewBox="0 0 47 47" fill="none" xmlns="http://www.w3.org/2000/svg">
<rect width="47" height="47" rx="10" fill="#18DEAE"/>
<path d="M34.6835 14.1988C34.5755 13.7463 34.0782 13.4383 33.6273 13.5984C33.6273 13.5984 14.094 20.4924 14.0907 20.4949C13.7909 20.6062 13.5707 20.8922 13.5545 21.2196C13.5398 21.5341 13.734 21.8615 14.0208 21.9948L21.5868 25.5267C21.5868 25.5267 25.2731 21.8404 25.2796 21.8339C26.0109 21.1026 27.1785 22.2336 26.4285 22.9828L22.7357 26.6756C22.7357 26.6756 26.2628 34.2334 26.2693 34.2456C26.4131 34.5219 26.6942 34.6974 27.003 34.7112C27.3385 34.7266 27.6489 34.4699 27.7691 34.1693C27.7691 34.1693 34.6591 14.6473 34.6632 14.6351C34.7144 14.4946 34.7176 14.3426 34.6835 14.1988Z" fill="white"/>
</svg>
