<svg width="22" height="22" viewBox="0 0 22 22" fill="none" xmlns="http://www.w3.org/2000/svg">
<path d="M21.6835 1.19882C21.5755 0.746255 21.0782 0.438317 20.6273 0.59838C20.6273 0.59838 1.09395 7.49244 1.0907 7.49488C0.790891 7.60619 0.570704 7.89219 0.554454 8.21963C0.539829 8.53407 0.734016 8.86151 1.02083 8.99476L8.58683 12.5267C8.58683 12.5267 12.2731 8.84038 12.2796 8.83388C13.0109 8.10263 14.1785 9.23363 13.4285 9.98276L9.7357 13.6756C9.7357 13.6756 13.2628 21.2334 13.2693 21.2456C13.4131 21.5219 13.6942 21.6974 14.003 21.7112C14.3385 21.7266 14.6489 21.4699 14.7691 21.1693C14.7691 21.1693 21.6591 1.64732 21.6632 1.63513C21.7144 1.49457 21.7176 1.34263 21.6835 1.19882Z" fill="white"/>
</svg>
