<svg width="3" height="13" viewBox="0 0 3 13" fill="none" xmlns="http://www.w3.org/2000/svg">
<path d="M2.85713 6.57137C2.85713 5.7824 2.21754 5.14281 1.42857 5.14281C0.639591 5.14281 0 5.7824 0 6.57137C0 7.36035 0.639591 7.99994 1.42857 7.99994C2.21754 7.99994 2.85713 7.36035 2.85713 6.57137Z" fill="white"/>
<path d="M2.85713 11.5714C2.85713 10.7825 2.21754 10.1429 1.42857 10.1429C0.639591 10.1429 0 10.7825 0 11.5714C0 12.3604 0.639591 13 1.42857 13C2.21754 13 2.85713 12.3604 2.85713 11.5714Z" fill="white"/>
<path d="M2.85713 1.42861C2.85713 0.639636 2.21754 4.45843e-05 1.42857 4.45843e-05C0.639591 4.45843e-05 0 0.639636 0 1.42861C0 2.21759 0.639591 2.85718 1.42857 2.85718C2.21754 2.85718 2.85713 2.21759 2.85713 1.42861Z" fill="white"/>
</svg>
